<svg xmlns="http://www.w3.org/2000/svg" width="110" height="135.14" viewBox="0 0 110 135.14"><defs><style>.cls-1{fill:#a97c50;}.cls-2{fill:#00a651;}.cls-3{fill:#ed1c24;}.cls-4{fill:#ffde17;}.cls-5{fill:#fbb040;}.cls-6{fill:#27aae1;}</style></defs><title>color_mark</title><g id="レイヤー_2" data-name="レイヤー 2"><g id="レイヤー_1-2" data-name="レイヤー 1"><path d="M9.79,118.42v16.37H5.53v-6.88H4.26v6.88H0V118.42H4.26v5.85H5.53v-5.85Z"/><path d="M15.76,118.42v16.37H11.5V118.42Z"/><path d="M17.47,118.42h3a22.82,22.82,0,0,1,4.09.23,2.79,2.79,0,0,1,1.74,1.19,5.44,5.44,0,0,1,.67,3,4.75,4.75,0,0,1-.48,2.57,2.52,2.52,0,0,1-1.87.79,3.16,3.16,0,0,1,1.7.83,2.59,2.59,0,0,1,.54,1,15.1,15.1,0,0,1,.11,2.42v4.32H23v-5.44a3.94,3.94,0,0,0-.2-1.63c-.14-.21-.51-.31-1.09-.31v7.38H17.47Zm4.26,2.8v3.64a1.85,1.85,0,0,0,1-.2c.2-.13.29-.56.29-1.28v-.9a1.34,1.34,0,0,0-.28-1A1.57,1.57,0,0,0,21.73,121.22Z"/><path d="M38.36,128a34.49,34.49,0,0,1-.12,3.49,4,4,0,0,1-.73,1.88,3.9,3.9,0,0,1-1.65,1.3,6.09,6.09,0,0,1-2.43.46,6.28,6.28,0,0,1-2.36-.43,3.95,3.95,0,0,1-2.44-3.16,35.13,35.13,0,0,1-.12-3.54V125.2c0-1.64,0-2.81.11-3.49A3.91,3.91,0,0,1,31,118.53a6,6,0,0,1,2.43-.46,6.06,6.06,0,0,1,2.36.43,4,4,0,0,1,1.69,1.29,3.92,3.92,0,0,1,.76,1.87,35.13,35.13,0,0,1,.12,3.54Zm-4.26-5.39a4.81,4.81,0,0,0-.13-1.46.51.51,0,0,0-.52-.32.59.59,0,0,0-.51.26,3.59,3.59,0,0,0-.18,1.52v7.65a7.28,7.28,0,0,0,.12,1.76.51.51,0,0,0,.54.33A.52.52,0,0,0,34,132a8.23,8.23,0,0,0,.12-1.83Z"/><path d="M53.54,125.55H49.28V122.7a5.24,5.24,0,0,0-.13-1.55.76.76,0,0,0-1.27.07,5.4,5.4,0,0,0-.15,1.62v7.6a5,5,0,0,0,.15,1.56.59.59,0,0,0,.63.36.61.61,0,0,0,.63-.36,6.31,6.31,0,0,0,.14-1.71v-2.06h4.26v.64a12.54,12.54,0,0,1-.36,3.6,3.72,3.72,0,0,1-1.59,1.87,5.47,5.47,0,0,1-3,.8,6.3,6.3,0,0,1-3.08-.68,3.28,3.28,0,0,1-1.61-1.88,12.43,12.43,0,0,1-.39-3.6v-4.79a21.42,21.42,0,0,1,.12-2.65,3.75,3.75,0,0,1,.72-1.71A4.14,4.14,0,0,1,46,118.54a6.08,6.08,0,0,1,2.45-.47,6,6,0,0,1,3.11.73,3.53,3.53,0,0,1,1.61,1.81,11.16,11.16,0,0,1,.38,3.38Z"/><path d="M62.43,118.42l2.43,16.37H60.51l-.23-2.94H58.76l-.26,2.94H54.1l2.17-16.37ZM60.17,129q-.31-2.79-.65-6.88c-.43,3.13-.7,5.43-.81,6.88Z"/><path d="M78.73,118.42v16.37H75v-11l-1.48,11H70.88L69.32,124v10.8H65.59V118.42H71.1c.16,1,.33,2.14.5,3.48l.61,4.16,1-7.64Z"/><path d="M80.44,118.42h7.1v3.27H84.7v3.11h2.66v3.11H84.7v3.61h3.12v3.27H80.44Z"/><path d="M89.05,118.42h3a22.61,22.61,0,0,1,4.08.23,2.79,2.79,0,0,1,1.74,1.19,5.35,5.35,0,0,1,.68,3,4.75,4.75,0,0,1-.48,2.57,2.54,2.54,0,0,1-1.87.79,3.16,3.16,0,0,1,1.7.83,2.59,2.59,0,0,1,.54,1,15.1,15.1,0,0,1,.11,2.42v4.32h-4v-5.44a3.71,3.71,0,0,0-.21-1.63c-.14-.21-.5-.31-1.09-.31v7.38H89.05Zm4.25,2.8v3.64a1.89,1.89,0,0,0,1-.2c.19-.13.29-.56.29-1.28v-.9a1.34,1.34,0,0,0-.28-1A1.58,1.58,0,0,0,93.3,121.22Z"/><path d="M107.57,118.42,110,134.79h-4.35l-.23-2.94H103.9l-.26,2.94h-4.4l2.17-16.37ZM105.31,129c-.22-1.86-.43-4.15-.65-6.88-.43,3.13-.71,5.43-.82,6.88Z"/><path class="cls-1" d="M63.57,36,43.5,1.21A55.12,55.12,0,0,0,3.38,36Z"/><path class="cls-2" d="M75.77,52.9,95.83,18.15A55.06,55.06,0,0,0,45.68.79Z"/><path class="cls-3" d="M107.34,71.94A55.07,55.07,0,0,0,97.28,19.83L67.2,71.94Z"/><path class="cls-4" d="M34.23,57.1,14.17,91.85a55.06,55.06,0,0,0,50.15,17.36Z"/><path class="cls-5" d="M42.8,38.06H2.66A55.07,55.07,0,0,0,12.72,90.17Z"/><path class="cls-6" d="M46.43,74,66.5,108.79A55.12,55.12,0,0,0,106.62,74Z"/></g></g></svg>