<svg xmlns="http://www.w3.org/2000/svg" width="132.46" height="77.72" viewBox="0 0 132.46 77.72"><defs><style>.cls-1{fill:#fafbfb;}</style></defs><title>logo_header</title><g id="レイヤー_2" data-name="レイヤー 2"><g id="レイヤー_1-2" data-name="レイヤー 1"><path class="cls-1" d="M126.88,76.5h-7.2V73.74h7.2a2.82,2.82,0,0,0,2.82-2.82V37.15a2.82,2.82,0,0,0-2.82-2.82h-7.2V31.57h7.2a5.58,5.58,0,0,1,5.58,5.58V70.92A5.58,5.58,0,0,1,126.88,76.5Z"/><path class="cls-1" d="M12.68,76.5H5.58A5.58,5.58,0,0,1,0,70.92V37.15a5.58,5.58,0,0,1,5.58-5.58h7.1v2.76H5.58a2.82,2.82,0,0,0-2.82,2.82V70.92a2.82,2.82,0,0,0,2.82,2.82h7.1Z"/><path class="cls-1" d="M90.58,14.51H87.82V5a2.24,2.24,0,0,0-2.23-2.24H46.88A2.24,2.24,0,0,0,44.64,5v9.51H41.88V5a5,5,0,0,1,5-5H85.59a5,5,0,0,1,5,5Z"/><path class="cls-1" d="M41.85,29.93V62.19H33.46V48.64H31V62.19H22.56V29.93H31V41.46h2.51V29.93Z"/><path class="cls-1" d="M57.69,29.93V62.19H49.3V29.93Z"/><path class="cls-1" d="M65.13,29.93h5.94a44.88,44.88,0,0,1,8,.46,5.52,5.52,0,0,1,3.43,2.34c.88,1.25,1.32,3.26,1.32,6,0,2.52-.31,4.2-.93,5.07s-1.86,1.38-3.69,1.55A6.3,6.3,0,0,1,82.59,47a4.94,4.94,0,0,1,1.06,1.91,29.78,29.78,0,0,1,.21,4.77v8.51H76.07V51.47a7.42,7.42,0,0,0-.41-3.21c-.27-.41-1-.62-2.14-.62V62.19H65.13Zm8.39,5.52v7.17a3.66,3.66,0,0,0,2-.39q.57-.39.57-2.52V37.94a2.65,2.65,0,0,0-.55-2A3.09,3.09,0,0,0,73.52,35.45Z"/><path class="cls-1" d="M110.36,48.82q0,4.86-.23,6.88a7.65,7.65,0,0,1-1.44,3.7A7.79,7.79,0,0,1,105.44,62a12,12,0,0,1-4.79.89A12.27,12.27,0,0,1,96,62a7.82,7.82,0,0,1-3.32-2.54,7.71,7.71,0,0,1-1.49-3.69,67.81,67.81,0,0,1-.24-7V43.3q0-4.86.23-6.89a7.74,7.74,0,0,1,4.69-6.26,11.82,11.82,0,0,1,4.78-.9,12.09,12.09,0,0,1,4.66.85,7.79,7.79,0,0,1,4.81,6.22,68,68,0,0,1,.24,7ZM102,38.22a9.86,9.86,0,0,0-.25-2.88,1,1,0,0,0-1-.63,1.14,1.14,0,0,0-1,.51,7.25,7.25,0,0,0-.35,3V53.28a15,15,0,0,0,.23,3.47,1,1,0,0,0,1.06.65,1,1,0,0,0,1.1-.75A16,16,0,0,0,102,53Z"/><path class="cls-1" d="M24.14,17.09h2.61a4,4,0,0,1,2.42.54,2.77,2.77,0,0,1,0,4.51,4,4,0,0,1-2.42.55H25.08v3.77h-.94Zm.94,4.75h1.35a4,4,0,0,0,1.88-.24,1.89,1.89,0,0,0,0-3.42,4,4,0,0,0-1.88-.24H25.08Z"/><path class="cls-1" d="M31.47,17.09h.89v3.33h0a2.48,2.48,0,0,1,2.13-1.06,2.87,2.87,0,0,1,2.19.84,3.3,3.3,0,0,1,.86,2.45v3.81h-.88V22.65a2.58,2.58,0,0,0-.66-1.9,2.2,2.2,0,0,0-3,0,2.54,2.54,0,0,0-.64,1.9v3.81h-.89Z"/><path class="cls-1" d="M42.55,19.36A3.64,3.64,0,1,1,38.94,23,3.67,3.67,0,0,1,42.55,19.36Zm0,6.47A2.84,2.84,0,1,0,39.83,23,2.78,2.78,0,0,0,42.56,25.83Z"/><path class="cls-1" d="M48.34,20.33H46.88v-.8h1.46V17.09h.88v2.44h1.66v.8H49.22v6.13h-.88Z"/><path class="cls-1" d="M55.14,19.36A3.64,3.64,0,1,1,51.52,23,3.67,3.67,0,0,1,55.14,19.36Zm0,6.47a2.84,2.84,0,0,0,0-5.68,2.84,2.84,0,0,0,0,5.68Z"/><path class="cls-1" d="M67,25.37a3.94,3.94,0,0,1-.63,2.53A3.69,3.69,0,0,1,60,26.64H61a2.69,2.69,0,0,0,2.6,1.75,2.39,2.39,0,0,0,2.5-2.59v-.61h0a3,3,0,0,1-2.67,1.44A3.59,3.59,0,0,1,59.76,23a3.64,3.64,0,0,1,3.62-3.67,3.14,3.14,0,0,1,2.67,1.41h0V19.53H67Zm-3.58.46A2.84,2.84,0,1,0,60.64,23,2.78,2.78,0,0,0,63.38,25.83Z"/><path class="cls-1" d="M68.63,19.53h.89v1h0a2,2,0,0,1,1.95-1.17v.93A2.1,2.1,0,0,0,70,21a2.22,2.22,0,0,0-.48,1.43v4.05h-.89Z"/><path class="cls-1" d="M79.48,26.46H78.6V25.25h0a3.24,3.24,0,0,1-2.7,1.38,3.64,3.64,0,1,1,0-7.27,3.13,3.13,0,0,1,2.7,1.39h0V19.53h.88Zm-3.61-.63A2.84,2.84,0,1,0,73,23,2.75,2.75,0,0,0,75.87,25.83Z"/><path class="cls-1" d="M81.07,19.53H82v1.22h0a3.22,3.22,0,0,1,2.69-1.39,3.64,3.64,0,1,1,0,7.27A3.26,3.26,0,0,1,82,25.25h0v3.64h-.89Zm3.61.62a2.84,2.84,0,0,0,0,5.68,2.84,2.84,0,1,0,0-5.68Z"/><path class="cls-1" d="M89.68,17.09h.89v3.33h0a2.46,2.46,0,0,1,2.12-1.06,2.87,2.87,0,0,1,2.19.84,3.3,3.3,0,0,1,.87,2.45v3.81h-.89V22.65a2.58,2.58,0,0,0-.66-1.9,2.19,2.19,0,0,0-3,0,2.54,2.54,0,0,0-.65,1.9v3.81h-.89Z"/><path class="cls-1" d="M98,23.32a2.74,2.74,0,0,0,2.68,2.51,2.61,2.61,0,0,0,2.48-1.64h.94a3.62,3.62,0,1,1-3.42-4.83,3.69,3.69,0,0,1,3.62,4Zm5.4-.8a2.76,2.76,0,0,0-2.71-2.37A2.73,2.73,0,0,0,98,22.52Z"/><path class="cls-1" d="M105.67,19.53h.89v1h0a2,2,0,0,1,2-1.17v.93A2.11,2.11,0,0,0,107,21a2.28,2.28,0,0,0-.48,1.43v4.05h-.89Z"/><path class="cls-1" d="M41.82,77.11a8.31,8.31,0,0,1-3.39.61c-3.62,0-6.35-2.29-6.35-6.5a6.4,6.4,0,0,1,6.71-6.75,7,7,0,0,1,3.05.57l-.4,1.36a6,6,0,0,0-2.59-.54c-3,0-5,1.93-5,5.3,0,3.15,1.81,5.17,4.94,5.17a6.56,6.56,0,0,0,2.71-.54Z"/><path class="cls-1" d="M46.05,73.49l-1.33,4H43l4.37-12.85h2l4.38,12.85H52l-1.37-4Zm4.22-1.3L49,68.49c-.29-.83-.48-1.6-.67-2.34h0c-.19.76-.4,1.54-.65,2.33L46.4,72.19Z"/><path class="cls-1" d="M66.39,71.89c-.09-1.79-.21-4-.19-5.55h-.06c-.44,1.51-1,3.11-1.62,4.88l-2.26,6.23H61l-2.08-6.12c-.61-1.81-1.12-3.46-1.49-5h0c0,1.6-.14,3.76-.25,5.68l-.35,5.51H55.22l.9-12.85h2.11l2.2,6.22c.53,1.58,1,3,1.29,4.32h.06c.32-1.29.78-2.7,1.35-4.32l2.29-6.22h2.11l.81,12.85H66.72Z"/><path class="cls-1" d="M77.54,71.51h-5v4.63h5.57v1.39H70.89V64.68h6.94v1.39H72.55v4.06h5Z"/><path class="cls-1" d="M80.27,64.85a17.46,17.46,0,0,1,3.18-.26,5.22,5.22,0,0,1,3.72,1,3.18,3.18,0,0,1,1,2.44,3.37,3.37,0,0,1-2.42,3.27v.06A3.21,3.21,0,0,1,87.65,74a20.5,20.5,0,0,0,1,3.53H86.92a16.66,16.66,0,0,1-.85-3.07C85.68,72.69,85,72,83.49,72H81.93v5.57H80.27Zm1.66,5.86h1.7c1.77,0,2.89-1,2.89-2.44,0-1.66-1.2-2.39-3-2.41a6.55,6.55,0,0,0-1.64.16Z"/><path class="cls-1" d="M92.7,73.49l-1.34,4H89.65L94,64.68h2l4.38,12.85H98.63l-1.38-4Zm4.21-1.3-1.26-3.7c-.28-.83-.47-1.6-.66-2.34h0c-.19.76-.4,1.54-.65,2.33L93,72.19Z"/></g></g></svg>