<svg xmlns="http://www.w3.org/2000/svg" width="219.71" height="128.91" viewBox="0 0 219.71 128.91"><defs><style>.cls-1{fill:#fafbfb;}</style></defs><title>logo_main</title><g id="レイヤー_2" data-name="レイヤー 2"><g id="レイヤー_1-2" data-name="レイヤー 1"><path class="cls-1" d="M210.46,126.89H198.52v-4.58h11.94a4.68,4.68,0,0,0,4.67-4.67v-56A4.67,4.67,0,0,0,210.46,57H198.52V52.36h11.94a9.26,9.26,0,0,1,9.25,9.25v56A9.26,9.26,0,0,1,210.46,126.89Z"/><path class="cls-1" d="M21,126.89H9.25A9.26,9.26,0,0,1,0,117.64v-56a9.26,9.26,0,0,1,9.25-9.25H21V57H9.25a4.67,4.67,0,0,0-4.67,4.66v56a4.68,4.68,0,0,0,4.67,4.67H21Z"/><path class="cls-1" d="M150.25,24.06h-4.58V8.29A3.72,3.72,0,0,0,142,4.58H77.75a3.71,3.71,0,0,0-3.7,3.71V24.06H69.46V8.29A8.3,8.3,0,0,1,77.75,0H142a8.3,8.3,0,0,1,8.29,8.29Z"/><path class="cls-1" d="M69.42,49.64v53.51H55.5V80.68H51.34v22.47H37.43V49.64H51.34V68.78H55.5V49.64Z"/><path class="cls-1" d="M95.68,49.64v53.51H81.77V49.64Z"/><path class="cls-1" d="M108,49.64h9.85q9.84,0,13.33.76a9.18,9.18,0,0,1,5.69,3.89q2.19,3.12,2.19,10,0,6.24-1.55,8.4c-1,1.43-3.07,2.29-6.11,2.57,2.75.69,4.6,1.6,5.55,2.75a8.08,8.08,0,0,1,1.77,3.15A50.49,50.49,0,0,1,139.1,89v14.11H126.18V85.37c0-2.87-.22-4.64-.68-5.32s-1.63-1-3.55-1v24.13H108ZM122,58.8V70.7a6.11,6.11,0,0,0,3.29-.65c.63-.43.94-1.82.94-4.18V62.93c0-1.7-.3-2.81-.91-3.34A5.15,5.15,0,0,0,122,58.8Z"/><path class="cls-1" d="M183.05,81q0,8.07-.38,11.42a12.78,12.78,0,0,1-7.78,10.39,19.55,19.55,0,0,1-7.93,1.49,20.27,20.27,0,0,1-7.72-1.4,12.89,12.89,0,0,1-8-10.33,111,111,0,0,1-.4-11.57V71.82c0-5.38.13-9.18.38-11.42A12.78,12.78,0,0,1,159,50,19.73,19.73,0,0,1,167,48.52a20.25,20.25,0,0,1,7.71,1.4,12.84,12.84,0,0,1,8,10.33,111.18,111.18,0,0,1,.4,11.57ZM169.14,63.39a16.25,16.25,0,0,0-.42-4.77,1.63,1.63,0,0,0-1.7-1,1.91,1.91,0,0,0-1.67.84c-.38.56-.57,2.22-.57,5v25a24.23,24.23,0,0,0,.38,5.75,1.66,1.66,0,0,0,1.76,1.09A1.71,1.71,0,0,0,168.74,94a26.67,26.67,0,0,0,.4-6Z"/><path class="cls-1" d="M40,28.35h4.33a6.61,6.61,0,0,1,4,.91,4.58,4.58,0,0,1,0,7.47,6.62,6.62,0,0,1-4,.9H41.6v6.26H40Zm1.56,7.88h2.24a6.51,6.51,0,0,0,3.11-.4,3.13,3.13,0,0,0,0-5.67,6.51,6.51,0,0,0-3.11-.4H41.6Z"/><path class="cls-1" d="M52.2,28.35h1.47v5.53h0a4.1,4.1,0,0,1,3.53-1.77,4.77,4.77,0,0,1,3.63,1.41,5.44,5.44,0,0,1,1.43,4v6.32H60.83V37.57a4.28,4.28,0,0,0-1.09-3.15,3.68,3.68,0,0,0-5,0,4.2,4.2,0,0,0-1.07,3.15v6.32H52.2Z"/><path class="cls-1" d="M70.58,32.11a6,6,0,1,1-6,6.11A6.09,6.09,0,0,1,70.58,32.11Zm0,10.73a4.7,4.7,0,0,0,0-9.4,4.7,4.7,0,0,0,0,9.4Z"/><path class="cls-1" d="M80.17,33.73H77.76V32.41h2.41V28.35h1.47v4.06h2.75v1.32H81.64V43.89H80.17Z"/><path class="cls-1" d="M91.45,32.11a6,6,0,1,1-6,6.11A6.09,6.09,0,0,1,91.45,32.11Zm0,10.73a4.7,4.7,0,1,0-4.53-4.64A4.59,4.59,0,0,0,91.47,42.84Z"/><path class="cls-1" d="M111.06,42.09a6.52,6.52,0,0,1-1,4.19,6.1,6.1,0,0,1-10.43-2.09h1.55a4.46,4.46,0,0,0,4.31,2.89,3.94,3.94,0,0,0,4.15-4.28v-1h0a4.93,4.93,0,0,1-4.43,2.37,6,6,0,0,1-6-6,6,6,0,0,1,6-6.09,5.2,5.2,0,0,1,4.43,2.35h0V32.41h1.47Zm-5.94.75a4.7,4.7,0,1,0-4.54-4.68A4.61,4.61,0,0,0,105.12,42.84Z"/><path class="cls-1" d="M113.84,32.41h1.47v1.66h0a3.27,3.27,0,0,1,3.23-2v1.56a3.53,3.53,0,0,0-2.48,1.13,3.78,3.78,0,0,0-.79,2.37v6.72h-1.47Z"/><path class="cls-1" d="M131.83,43.89h-1.47v-2h0a5.31,5.31,0,0,1-4.47,2.28,6,6,0,1,1,0-12,5.2,5.2,0,0,1,4.47,2.31h0v-2h1.47Zm-6-1a4.7,4.7,0,1,0-4.71-4.66A4.56,4.56,0,0,0,125.85,42.84Z"/><path class="cls-1" d="M134.48,32.41H136v2h0a5.36,5.36,0,0,1,4.47-2.31,6,6,0,1,1,0,12A5.41,5.41,0,0,1,136,41.88h0v6h-1.47Zm6,1a4.7,4.7,0,0,0,0,9.4,4.7,4.7,0,1,0,0-9.4Z"/><path class="cls-1" d="M148.76,28.35h1.47v5.53h0a4.1,4.1,0,0,1,3.53-1.77,4.77,4.77,0,0,1,3.63,1.41,5.44,5.44,0,0,1,1.43,4v6.32h-1.47V37.57a4.28,4.28,0,0,0-1.09-3.15,3.68,3.68,0,0,0-5,0,4.2,4.2,0,0,0-1.07,3.15v6.32h-1.47Z"/><path class="cls-1" d="M162.58,38.68A4.56,4.56,0,0,0,167,42.84a4.34,4.34,0,0,0,4.11-2.71h1.56a6,6,0,1,1-5.67-8,6.13,6.13,0,0,1,6,6.57Zm9-1.32a4.52,4.52,0,0,0-9,0Z"/><path class="cls-1" d="M175.28,32.41h1.47v1.66h0a3.3,3.3,0,0,1,3.24-2v1.56a3.53,3.53,0,0,0-2.48,1.13,3.73,3.73,0,0,0-.8,2.37v6.72h-1.47Z"/><path class="cls-1" d="M69.37,127.9a13.61,13.61,0,0,1-5.63,1c-6,0-10.53-3.79-10.53-10.78,0-6.67,4.52-11.19,11.13-11.19a11.41,11.41,0,0,1,5.06,1l-.66,2.24a10.14,10.14,0,0,0-4.3-.88c-5,0-8.32,3.19-8.32,8.79,0,5.21,3,8.56,8.19,8.56a11,11,0,0,0,4.49-.88Z"/><path class="cls-1" d="M76.39,121.89l-2.21,6.71H71.33l7.24-21.31h3.32l7.27,21.31H86.22L84,121.89Zm7-2.15-2.09-6.13c-.47-1.39-.79-2.66-1.11-3.89h-.06c-.32,1.26-.66,2.56-1.08,3.86L77,119.74Z"/><path class="cls-1" d="M110.13,119.24c-.16-3-.35-6.55-.32-9.2h-.1c-.72,2.49-1.61,5.15-2.68,8.09l-3.76,10.34h-2.09l-3.45-10.15c-1-3-1.86-5.75-2.46-8.28H95.2c-.06,2.65-.22,6.23-.41,9.42l-.57,9.14H91.6l1.48-21.31h3.51l3.64,10.3c.89,2.63,1.61,5,2.15,7.18h.09c.54-2.15,1.3-4.49,2.25-7.18l3.79-10.3H112l1.33,21.31h-2.69Z"/><path class="cls-1" d="M128.62,118.6h-8.28v7.69h9.23v2.31h-12V107.29H129.1v2.3h-8.76v6.74h8.28Z"/><path class="cls-1" d="M133.15,107.57a29,29,0,0,1,5.28-.44c2.94,0,4.83.54,6.16,1.74a5.29,5.29,0,0,1,1.68,4,5.59,5.59,0,0,1-4,5.44v.1c1.65.57,2.63,2.08,3.13,4.3A33.77,33.77,0,0,0,147,128.6h-2.85a27.77,27.77,0,0,1-1.42-5.1c-.63-2.93-1.77-4-4.27-4.14H135.9v9.24h-2.75Zm2.75,9.71h2.81c2.94,0,4.81-1.62,4.81-4,0-2.75-2-4-4.9-4a11.16,11.16,0,0,0-2.72.25Z"/><path class="cls-1" d="M153.76,121.89l-2.21,6.71H148.7l7.24-21.31h3.32l7.28,21.31h-2.95l-2.27-6.71Zm7-2.15-2.09-6.13c-.47-1.39-.79-2.66-1.1-3.89h-.07c-.31,1.26-.66,2.56-1.07,3.86l-2.09,6.16Z"/></g></g></svg>